<svg width="98" height="25" viewBox="0 0 98 25" fill="none" xmlns="http://www.w3.org/2000/svg">
<g clip-path="url(#clip0_3_85)">
<path d="M4.74988 24.8681C4.57674 24.7956 4.24682 24.6319 4.01673 24.5042C3.36268 24.1414 3.17795 24.0718 2.75886 24.0302C2.29667 23.9843 2.13016 23.8892 1.73697 23.4463C1.59298 23.2842 1.32397 23.045 1.13917 22.9148C0.400997 22.3949 0.242565 22.108 0.168812 21.1574C0.142141 20.8136 0.0932477 20.2976 0.0601598 20.0106L0 19.4889L0.172137 19.0847C0.579965 18.127 1.02568 17.4863 1.63976 16.975C2.15156 16.5488 2.60675 16.3303 2.89708 16.3714C3.0779 16.397 3.11649 16.3816 3.34749 16.1918C3.70427 15.8987 3.83589 15.8514 4.59802 15.7423C4.96975 15.6891 5.4622 15.5956 5.69234 15.5346C5.92248 15.4735 6.27555 15.409 6.47692 15.3912C6.6783 15.3734 6.96074 15.3198 7.10458 15.272C7.28367 15.2125 7.50345 15.1851 7.80179 15.1851C8.32103 15.185 8.63633 15.0874 9.41787 14.6846L9.92907 14.4211L10.4346 14.4331C11.0146 14.4468 11.1753 14.4075 11.281 14.2264C11.4777 13.8892 11.6262 12.6507 11.5291 12.1573C11.4615 11.8133 11.2741 11.3996 11.1425 11.3034C11.0957 11.2692 10.7918 11.2112 10.4671 11.1746C10.0457 11.127 9.80194 11.0739 9.61524 10.9889C9.2997 10.8451 9.06409 10.8411 8.53767 10.9702C8.03219 11.0942 7.93274 11.089 7.659 10.9248C7.46544 10.8088 7.37774 10.7868 7.1077 10.7868C6.93108 10.7868 6.65103 10.7555 6.48536 10.7173C6.07561 10.6229 5.79851 10.6301 5.41364 10.7451C5.02389 10.8616 4.777 11.0591 4.777 11.2544C4.777 11.3327 4.88048 11.5484 5.01993 11.7609L5.26286 12.1309L5.23367 12.5816C5.19851 13.1244 5.00555 13.7036 4.77394 13.9616C4.40243 14.3753 4.0519 14.4734 3.39788 14.3465C3.06136 14.2812 2.93106 14.2758 2.68243 14.3168C2.42303 14.3595 2.34145 14.3544 2.12625 14.2825C1.77258 14.1642 1.31595 13.8811 1.11289 13.6542C0.803686 13.3086 0.592071 12.5364 0.59355 11.759C0.595688 10.635 1.02227 9.91797 1.95828 9.465C2.22385 9.33648 2.49287 9.14314 2.86352 8.81442C3.15358 8.55717 3.49329 8.28997 3.61843 8.22063C3.74357 8.15129 3.98799 8.00201 4.16159 7.88889L4.47723 7.68322L5.29401 7.69456C5.95194 7.7037 6.17181 7.6899 6.42461 7.62358C6.59722 7.5783 7.05905 7.51421 7.4509 7.48115C8.12238 7.42451 8.18143 7.41133 8.4777 7.25204C8.82598 7.06477 8.94066 7.05177 9.37232 7.15064C9.53469 7.18782 9.96193 7.25033 10.3217 7.28953C11.1232 7.37686 11.2373 7.40495 11.6163 7.60819C11.7815 7.69676 12.1403 7.84698 12.4136 7.94202C12.8925 8.10856 12.9304 8.13269 13.462 8.60967C14.1525 9.22922 14.4955 9.63034 14.7892 10.1618C15.1198 10.7601 15.2337 11.136 15.3153 11.8979C15.3548 12.2671 15.4267 12.6691 15.4752 12.7911C15.5475 12.9733 15.5529 13.0493 15.5053 13.2167C15.4311 13.4774 15.432 13.7154 15.5086 14.1107C15.5588 14.3702 15.5543 14.5432 15.4836 15.0723C15.4362 15.4271 15.3713 16.1237 15.3394 16.6202C15.3075 17.1168 15.2567 17.6064 15.2266 17.7082C15.1275 18.0431 15.1198 18.4532 15.2075 18.7203C15.326 19.0811 15.3108 19.282 15.1351 19.6759C15.0429 19.8824 14.9794 20.1117 14.9783 20.2419C14.9756 20.5752 15.3942 21.482 15.5799 21.5451C15.6267 21.561 15.757 21.574 15.8694 21.574C16.0619 21.574 16.089 21.5555 16.3357 21.2553C16.6296 20.8977 16.8318 20.787 17.1914 20.787C17.6168 20.787 19.4339 20.9708 20.0399 21.0751C20.6998 21.1887 20.7529 21.1792 20.8967 20.9217C21.0345 20.675 21.0857 20.4084 21.2817 18.9164C21.5127 17.1586 21.5158 17.0774 21.3594 16.89C21.2421 16.7496 21.239 16.7229 21.2707 16.1384C21.2888 15.805 21.3295 15.2302 21.3611 14.8609C21.4232 14.1358 21.395 13.4386 21.2743 12.7113C21.163 12.0414 21.1709 11.6153 21.303 11.1619C21.479 10.5576 21.4712 10.4965 21.1592 10.0478C20.8279 9.57126 20.814 9.41942 21.0467 8.81627C21.2179 8.37248 21.2195 8.29725 21.0683 7.81461L20.9712 7.50451L21.0933 7.27379C21.2508 6.9762 21.2255 6.83619 20.8956 6.1799C20.7548 5.89998 20.5982 5.55637 20.5474 5.41632C20.3907 4.98384 20.268 4.92303 19.8932 5.09224C19.6113 5.21956 19.4007 5.20848 19.0124 5.04591C18.6316 4.88644 18.5507 4.87829 18.3826 4.9825C18.2087 5.0903 17.8955 5.14279 17.7089 5.09541C17.621 5.07311 17.4327 4.9734 17.2904 4.87384C17.1481 4.77428 16.8044 4.58137 16.5266 4.44515C15.9217 4.14852 15.5538 3.83582 15.3347 3.43197C15.0182 2.84872 15.1606 2.15033 15.7539 1.37685C16.1633 0.842992 16.5592 0.486908 16.9215 0.326681C17.3332 0.144569 17.5763 0.144546 18.1583 0.326561C18.9222 0.565482 19.2965 0.617729 20.8086 0.696498C21.3264 0.723473 21.9148 0.775598 22.1162 0.812332C22.5972 0.900061 22.6725 0.89743 23.0904 0.778305L23.4443 0.677416L23.8263 0.844616C24.3842 1.08874 24.4906 1.20552 24.5812 1.67354C24.7307 2.44478 25.184 3.7761 25.444 4.20737C25.6625 4.56991 25.6529 4.90051 25.4065 5.49504C25.1191 6.18826 25.1223 6.17332 25.0715 7.0466C25.0263 7.82311 25.0146 7.88582 24.8515 8.22717L24.6792 8.58768V10.4627V12.3378L24.9087 12.8428L25.1382 13.3478L24.9468 13.8613C24.8416 14.1437 24.756 14.4549 24.7566 14.5528C24.7572 14.6507 24.8315 14.9411 24.9217 15.1982C25.0857 15.6654 25.0858 15.6661 25.0202 16.1216C24.934 16.7205 24.9401 16.8632 25.0677 17.2221C25.2026 17.6014 25.2024 17.7508 25.0662 18.3166C24.9833 18.661 24.9547 18.9548 24.9497 19.5138C24.9423 20.332 25.0031 20.6804 25.2138 21.0267C25.3632 21.2723 25.3823 21.2807 26.2073 21.4639C26.7407 21.5822 26.8168 21.5888 27.0442 21.5358C27.1818 21.5037 27.4827 21.3683 27.7129 21.2349C28.4971 20.7802 28.4304 20.7906 30.0666 20.8696C30.9579 20.9126 32.1171 20.9436 32.3232 20.9299C32.4857 20.919 32.7128 20.094 32.8616 18.9736C32.9214 18.5238 33.0317 17.902 33.1068 17.5919C33.253 16.9887 33.2503 16.9633 33.0128 16.7017C32.8984 16.5758 32.8981 16.5696 32.9604 15.799C33.05 14.6908 33.0397 13.2135 32.9366 12.3801L32.8502 11.6817L32.9885 11.1301C33.1781 10.3743 33.1733 10.3184 32.8826 9.90595C32.5755 9.47026 32.5424 9.25873 32.7114 8.81252C32.8514 8.44284 32.8702 8.02748 32.7659 7.60605C32.6988 7.33507 32.7011 7.30946 32.806 7.152C32.9664 6.91146 32.9449 6.71918 32.7013 6.21259C32.5826 5.96562 32.4047 5.57605 32.3061 5.34687C32.0854 4.83405 32.0053 4.72186 31.8597 4.72186C31.7972 4.72186 31.657 4.77646 31.5482 4.84319L31.3504 4.96451L30.9298 4.88948C30.6984 4.84822 30.3813 4.81446 30.225 4.81446C29.949 4.81446 29.9364 4.80875 29.7859 4.61503C29.5683 4.33507 29.5368 4.31873 29.1153 4.26706C28.8372 4.23298 28.6784 4.18388 28.5054 4.07852C28.1919 3.88763 27.9123 3.596 27.7461 3.28665C27.5586 2.93755 27.5527 2.31707 27.7319 1.80514C27.9029 1.31685 28.2742 0.70144 28.5533 0.443546C28.7904 0.224524 29.2389 0.000851366 29.4427 5.59837e-07C29.5022 -0.00024813 29.7993 0.0823895 30.1029 0.18364C30.4065 0.28489 30.7932 0.380057 30.9622 0.395123C31.1313 0.410188 31.4109 0.467643 31.5835 0.522801C31.8621 0.611833 31.9854 0.621584 32.6819 0.609688C33.4187 0.597103 33.4884 0.603597 33.826 0.716342L34.1855 0.836396L34.6512 0.715115L35.1169 0.593834L35.4424 0.733792C35.8467 0.907629 35.9323 0.968496 36.0026 1.13235C36.0333 1.20378 36.198 1.76205 36.3686 2.37295C36.6294 3.30698 36.7217 3.56107 36.9491 3.9701C37.1979 4.41764 37.217 4.47546 37.1889 4.69336C37.172 4.82362 37.0609 5.15937 36.9418 5.43947C36.7358 5.92423 36.7221 5.98884 36.6575 6.78209C36.5973 7.5191 36.5703 7.66087 36.4239 8.00843C36.2244 8.48174 36.1641 8.97344 36.1628 10.1386C36.1614 11.3069 36.2305 11.9255 36.4212 12.4535C36.6726 13.1493 36.6774 13.3602 36.4545 13.9084L36.2677 14.3679L36.4563 14.8565L36.6449 15.3451L36.6088 16.0441C36.5737 16.7225 36.5768 16.7535 36.7121 17.1004L36.8515 17.4577L36.6895 18.208C36.4603 19.27 36.4226 19.5122 36.4221 19.9234C36.4217 20.2594 36.438 20.3144 36.638 20.6546C36.892 21.0868 36.9368 21.1128 37.7099 21.2777C38.3544 21.4152 38.5388 21.4101 39.2451 21.235C39.8212 21.0922 40.7268 20.9992 41.103 21.0443C41.5934 21.103 41.9407 21.3196 42.1957 21.7256C42.4381 22.1115 42.5321 22.5196 42.4464 22.8132C42.2996 23.3158 41.8048 24.0129 41.4769 24.1792C41.407 24.2146 41.1373 24.2373 40.7631 24.2392C40.2875 24.2416 40.0516 24.2679 39.6362 24.3649L39.1109 24.4875L38.6947 24.3976C38.1124 24.2716 37.6099 24.2398 37.1663 24.3007C36.8814 24.3399 36.568 24.3391 35.9111 24.2976C34.5101 24.2092 34.0613 24.2188 33.5256 24.3484C33.0207 24.4705 33.0101 24.4697 32.3681 24.2593C32.074 24.163 32.0278 24.1601 31.6343 24.2137L31.2144 24.271L30.8905 24.1262C30.7123 24.0466 30.5043 23.9815 30.4282 23.9815C30.3508 23.9815 30.1718 24.058 30.022 24.1551L29.7542 24.3287L29.2443 24.3157C28.8358 24.3052 28.6239 24.3267 28.1785 24.4235C27.6486 24.5387 27.6015 24.5416 27.1708 24.4852C26.9 24.4498 26.1638 24.4245 25.333 24.4223C24.5706 24.4202 23.6998 24.4018 23.3977 24.3814C22.8689 24.3457 22.8315 24.3495 22.3931 24.4833L21.9378 24.6224L21.5563 24.4757C21.1925 24.3358 21.1471 24.3295 20.583 24.3409C19.9986 24.3528 19.9866 24.3509 19.6153 24.1886C19.3043 24.0526 19.2033 24.0291 19.0302 24.0527C18.713 24.0957 18.0876 24.2537 17.8392 24.3535C17.6682 24.4223 17.4971 24.4427 17.0856 24.4435C16.7928 24.444 16.3731 24.4666 16.153 24.4938C15.2672 24.6028 14.5737 24.3786 13.964 23.7859C13.5503 23.3839 13.2177 23.1712 12.9291 23.1243C12.7134 23.0893 12.5971 23.1315 12.2751 23.3618C12.1558 23.4471 11.7516 23.6497 11.3769 23.8119C11.0021 23.9742 10.6055 24.1695 10.4954 24.2459C10.3853 24.3223 10.2434 24.4088 10.1801 24.4382C10.0387 24.5038 8.80724 24.5816 7.88916 24.583C6.91426 24.5845 6.45111 24.6429 5.89046 24.835C5.62544 24.9258 5.33122 25 5.23664 25C5.14206 25 4.92302 24.9406 4.74988 24.8681H4.74988ZM6.49174 22.0665C6.90232 21.8844 7.06894 21.8559 7.98372 21.8119C8.74451 21.7753 8.87308 21.758 8.93887 21.6834C8.98067 21.636 9.16534 21.4097 9.34923 21.1805C9.81286 20.6027 9.91917 20.5173 10.8878 19.9438C11.5981 19.5232 11.7554 19.4095 11.822 19.2684C11.9177 19.0657 11.9819 17.7047 11.9074 17.4571C11.8812 17.3698 11.7976 17.2574 11.7217 17.2073C11.5841 17.1164 11.5821 17.1164 11.1225 17.2146C10.8689 17.2688 10.38 17.3871 10.0362 17.4775C9.50077 17.6182 9.29062 17.6482 8.57166 17.6864C7.10578 17.7643 6.65243 17.8523 5.81975 18.2202C5.57337 18.3291 5.11439 18.5152 4.79979 18.6339C4.48519 18.7526 4.17346 18.8945 4.10706 18.9493C3.93576 19.0906 3.69864 19.5557 3.62351 19.8977C3.42914 20.7824 3.89807 21.5205 4.80223 21.753C5.02286 21.8098 5.37224 21.9279 5.57862 22.0155C6.02332 22.2043 6.16333 22.2121 6.49174 22.0665V22.0665Z" fill="white" fill-opacity="0.7"/>
<path d="M57.3757 24.4872C57.0912 24.4129 56.644 24.3294 56.3819 24.3015C56.0093 24.2618 55.7344 24.1908 55.1209 23.9759C54.1006 23.6184 54.1084 23.6222 53.9212 23.3839C53.8331 23.2716 53.7062 23.121 53.6394 23.0491L53.5178 22.9183L53.2994 23.0162C53.1793 23.07 52.5631 23.4214 51.9303 23.797L50.7795 24.48L49.3565 24.5352L47.9334 24.5904L47.6179 24.4651C47.3482 24.3579 47.2663 24.3451 47.0534 24.3767C46.9164 24.3971 46.6043 24.4154 46.3597 24.4175C45.9731 24.4209 45.8761 24.4044 45.6156 24.2912C44.5778 23.8401 42.9886 21.7562 42.2831 19.9213C41.9052 18.9382 41.9064 18.9507 41.8845 15.9258C41.8737 14.4362 41.8389 12.9153 41.8072 12.5461C41.7507 11.8885 41.6162 11.1724 41.4997 10.9088C41.4416 10.7773 41.4383 10.7765 41.1139 10.8072C40.7027 10.8462 40.1469 10.7698 39.8887 10.6389C39.2871 10.3337 38.7497 9.83078 38.598 9.43101C38.5 9.17289 38.488 8.56363 38.5686 7.93955C38.6326 7.44342 38.7382 7.27587 39.1813 6.96708C39.7931 6.5408 40.4132 6.46193 41.1815 6.71267C41.6469 6.86457 41.9521 6.89135 41.9985 6.78436C42.0303 6.71108 42.2393 6.64278 42.5697 6.59773C43.5699 6.46136 45.237 7.38623 45.7434 8.35833C45.8488 8.56081 45.8622 8.65558 45.8575 9.16642C45.8526 9.70911 45.8397 9.77828 45.6502 10.2776C45.464 10.7683 45.4482 10.8499 45.449 11.3192C45.4498 11.8945 45.5126 12.0834 45.8893 12.6445C46.1901 13.0928 46.2035 13.2153 45.9908 13.5742C45.8959 13.7345 45.784 13.9252 45.7423 13.998C45.6406 14.1753 45.4814 14.7301 45.4398 15.0522C45.4084 15.2955 45.4197 15.3342 45.6083 15.6309L45.8105 15.949L45.8367 17.8052L45.8628 19.6615L46.0689 19.8886C46.6132 20.4886 47.191 20.9566 47.5551 21.0924C47.6863 21.1413 48.0072 21.1719 48.5835 21.1903L49.4212 21.2171L49.8063 20.8522C50.4571 20.2354 51.8583 18.6109 52.3154 17.9434C52.5536 17.5955 52.934 16.7489 53.068 16.2681L53.1805 15.865L53.0574 15.4672C52.887 14.9164 52.8751 14.7165 52.9746 14.0716C53.0709 13.4474 53.0681 13.4241 52.8125 12.7135C52.6958 12.3892 52.6423 12.1646 52.6624 12.0837C52.6796 12.0145 52.8117 11.8405 52.9561 11.6972C53.2693 11.3861 53.3388 11.216 53.239 11.0046C53.1319 10.7779 53.0129 10.708 52.5882 10.6225C52.3748 10.5795 51.9748 10.4612 51.6992 10.3596C51.2234 10.1841 51.1767 10.1759 50.7795 10.1973C49.9313 10.243 49.3051 10.054 48.771 9.59116C48.2412 9.13198 48.1828 8.88264 48.4838 8.36522C48.805 7.81332 49.9607 6.69742 50.4313 6.48492C50.698 6.36446 50.8427 6.36446 51.447 6.48494C52.1372 6.62255 52.5018 6.6229 52.8325 6.48627L53.1003 6.37561L53.4567 6.49218C53.8857 6.63242 53.9879 6.64753 55.1049 6.73572C56.1367 6.81718 56.4775 6.90936 56.8024 7.19488C57.041 7.40451 57.0889 7.5265 57.1765 8.14789C57.2071 8.36433 57.2718 8.7185 57.3203 8.93494C57.429 9.41949 57.4442 11.4611 57.3478 12.6295C57.2837 13.4055 57.2036 13.7494 56.9462 14.3517C56.8138 14.6615 56.7977 14.7588 56.7963 15.2545C56.795 15.6815 56.8207 15.8958 56.9074 16.1805C57.0045 16.4992 57.0244 16.7218 57.0504 17.7777C57.0689 18.5248 57.0575 19.2789 57.0213 19.7059C56.965 20.3702 56.9673 20.4155 57.0639 20.5618C57.1965 20.7628 57.4933 20.8602 58.2512 20.9517C59.1917 21.0653 59.7949 21.2862 60.0584 21.6137C60.3153 21.9331 60.3918 22.8863 60.1854 23.1956C60.1369 23.2683 59.8484 23.473 59.5443 23.6504C59.2403 23.8278 58.7798 24.1207 58.5211 24.3013C58.2624 24.4819 58.0152 24.628 57.9719 24.6259C57.9285 24.6238 57.6603 24.5614 57.3757 24.4872Z" fill="white" fill-opacity="0.7"/>
<path d="M61.84 24.2236C61.1535 23.7827 60.7733 23.0649 60.9133 22.4741C61.0883 21.7356 61.615 21.3336 62.412 21.3303C62.6161 21.3295 62.9558 21.3564 63.167 21.3901C63.5112 21.4451 63.579 21.4431 63.8213 21.3702C64.1834 21.2612 64.6392 20.9837 64.7604 20.7985C64.8912 20.5986 65.1094 19.6373 65.11 19.2592C65.1101 19.0937 65.0846 18.7724 65.0531 18.5453C65.009 18.2265 65.016 17.7093 65.0842 16.2767C65.2024 13.7938 65.1772 10.9227 65.0343 10.5837C64.9073 10.2821 64.6245 10.0494 64.0175 9.74685C63.2238 9.35124 63.3201 9.36369 62.7552 9.58375C62.2036 9.79861 61.9691 9.82117 61.6051 9.69441C60.774 9.405 59.9849 8.68299 59.7065 7.9572C59.6455 7.7981 59.6379 7.6991 59.6752 7.55183C59.8493 6.86612 60.4448 6.3478 61.3309 6.11079C61.6932 6.01389 61.7821 6.01026 63.397 6.02642C65.0225 6.04268 65.0926 6.04709 65.3047 6.14649C65.5775 6.27433 65.6927 6.27526 66.0832 6.15271C66.7044 5.95775 67.508 6.04017 67.9882 6.34809C68.244 6.5121 68.3463 6.69693 68.5948 7.44456C68.7989 8.05835 68.9806 8.36583 69.1634 8.40644C69.4292 8.46547 69.646 8.34654 70.5663 7.63684C71.0583 7.25739 71.4355 7.08303 71.7643 7.08303C71.9896 7.08303 72.0409 7.05912 72.4067 6.78395C73.0606 6.2921 73.7153 6.06449 74.4761 6.06449C74.7391 6.06449 74.9791 6.09608 75.1794 6.15708C75.3467 6.20801 75.5396 6.24968 75.6081 6.24968C75.6767 6.24968 75.8251 6.20801 75.9378 6.15708C76.2756 6.00455 76.3927 6.0306 76.7199 6.33114C76.8795 6.4778 77.3544 7.04653 77.7752 7.595L78.5403 8.5922L78.5756 9.02977C78.6393 9.8208 78.7126 10.3854 78.8216 10.9257C78.9911 11.7661 78.8738 12.1816 78.3494 12.5985C78.0168 12.863 77.0009 13.4757 76.5572 13.6796L76.2612 13.8155L75.7988 13.627C75.5444 13.5233 75.2304 13.4 75.101 13.3529C74.5489 13.1524 73.8862 12.541 73.5502 11.9224C73.3316 11.5199 73.3223 11.2499 73.5052 10.6145C73.6508 10.1086 73.6635 9.96407 73.577 9.79614C73.4942 9.63522 73.4003 9.61627 73.0862 9.69709C72.8885 9.74797 72.6998 9.85379 72.4011 10.0814C72.1743 10.2541 71.7498 10.5662 71.4577 10.775C70.8527 11.2073 70.6768 11.3809 70.4407 11.7783C70.0194 12.4876 69.8256 12.7314 69.2887 13.2273C68.8348 13.6466 68.6845 13.8217 68.5074 14.138L68.2882 14.5297L68.3736 15.0541C68.4779 15.6954 68.4798 16.1598 68.383 17.4767C68.3419 18.0369 68.2919 18.8706 68.2719 19.3293L68.2355 20.1634L68.5691 20.4216C69.0118 20.7641 69.3536 20.9762 69.7658 21.1643L70.1058 21.3194H71.7364H73.3671L73.6461 21.5324C74.3801 22.0927 74.4236 22.7523 73.7761 23.5022C73.4593 23.869 73.0964 24.002 72.0284 24.1425C71.2974 24.2387 70.6993 24.232 70.1782 24.1218C69.7967 24.0412 69.7316 24.0383 69.6126 24.097C69.1307 24.3347 69.1881 24.3274 67.8044 24.3281L66.4967 24.3288L66.1895 24.2014C65.8244 24.0502 65.6672 24.0446 65.2153 24.1667C64.7986 24.2793 64.2829 24.2855 63.7502 24.1842C63.3649 24.1109 63.3441 24.1116 62.9122 24.2152C62.2191 24.3813 62.087 24.3823 61.84 24.2237L61.84 24.2236Z" fill="white" fill-opacity="0.7"/>
<path d="M87.9419 24.6001C86.9303 24.5406 86.4957 24.3935 85.964 23.9306C85.5367 23.5587 85.4505 23.5185 85.0791 23.5185C84.2012 23.5185 83.2836 23.1507 82.327 22.4153C81.8956 22.0837 81.7782 21.9172 81.6191 21.4118C81.442 20.8492 81.3057 20.589 80.6715 19.6031C79.6847 18.069 79.597 17.8775 79.317 16.6434C79.0583 15.5028 79.0449 15.3286 79.1822 14.8883C79.2849 14.5587 79.2926 14.4588 79.2591 13.8869C79.2147 13.127 79.2344 13.0511 79.7578 11.9673C79.9546 11.5599 80.1658 11.0599 80.227 10.8562C80.5065 9.92727 80.7825 9.36981 81.2276 8.83567C81.5248 8.47894 81.7213 8.3353 82.1319 8.17458C82.3848 8.07558 82.4429 8.02861 82.5312 7.85196C82.6683 7.57763 82.8997 7.40586 84.1129 6.67789L85.1352 6.06446L85.4663 6.0629C86.1381 6.05973 86.8925 5.97756 86.9561 5.90061C86.9893 5.86038 87.1424 5.78227 87.2962 5.72705C87.5551 5.63407 87.6826 5.62546 89.0173 5.61086L90.4587 5.59509L91.0185 5.85493C91.3263 5.99783 91.8898 6.21486 92.2707 6.3372C93.4898 6.72878 94.4198 7.18694 94.9247 7.64469C95.1117 7.81423 95.4466 8.06207 95.6691 8.19544C96.1564 8.48765 96.2576 8.61796 96.747 9.58304C97.2874 10.6486 97.4959 11.2304 97.5104 11.7127C97.5209 12.0652 97.5455 12.1521 97.7463 12.5461C98.0552 13.1521 98.072 13.3714 97.8512 13.9118C97.7575 14.141 97.6113 14.5051 97.5263 14.721C97.4412 14.9369 97.3057 15.1973 97.2252 15.2998C96.9173 15.6914 96.4469 16.0043 95.9289 16.162C95.5823 16.2676 95.4027 16.2701 94.8201 16.1774C94.3269 16.099 94.0106 16.1149 93.2907 16.254C92.7129 16.3658 92.4215 16.3649 91.131 16.2473C90.5565 16.1949 89.8158 16.1488 89.4849 16.1448C88.9285 16.1381 88.8436 16.1494 88.3515 16.2949L87.8195 16.4523L87.3278 16.3667C86.8626 16.2858 86.8083 16.2852 86.3168 16.3566C85.9411 16.4112 85.6374 16.4243 85.2187 16.4039C84.6664 16.3771 84.6256 16.3815 84.3216 16.5023C84.1465 16.5718 83.9377 16.6893 83.8576 16.7632L83.7121 16.8977L83.8073 17.3493C84.0091 18.3067 84.2888 19.1519 84.5289 19.5297C84.8302 20.0038 85.1272 20.1932 85.8394 20.3653C86.2777 20.4712 86.3997 20.5272 86.7651 20.79C87.1028 21.033 87.2836 21.1037 87.7712 21.1835C88.2772 21.2662 88.6127 21.355 89.0241 21.5148L89.3216 21.6304L90.0179 21.4635C90.4008 21.3717 90.8553 21.2745 91.0279 21.2477C91.5482 21.1666 91.6921 21.1102 92.0694 20.8389C92.5114 20.5212 93.0084 20.027 93.6041 19.3132C94.2021 18.5965 94.5382 18.2533 94.7358 18.1575C94.8693 18.0927 95.0441 18.0786 95.7093 18.0786C96.6471 18.0786 96.8057 18.1136 97.1132 18.3885C97.7361 18.9454 97.6511 20.0915 96.8865 21.4457C96.5999 21.9532 96.3562 22.2624 96.1178 22.4209C96.0226 22.4842 95.7093 22.6224 95.4216 22.728C95.1339 22.8336 94.569 23.0835 94.1663 23.2832C93.2172 23.754 92.4045 24.1115 91.7943 24.3266C91.3764 24.474 91.2661 24.4952 91.0359 24.4724C90.1693 24.3866 89.8191 24.3887 89.2747 24.483C88.6421 24.5925 88.3094 24.6218 87.9419 24.6001V24.6001ZM90.9847 13.24C91.44 13.1336 91.8988 13.0273 92.0043 13.0039C92.248 12.9497 92.6331 12.6089 92.8078 12.2928C93.0827 11.7956 93.0332 10.9395 92.7127 10.6477C92.3376 10.3061 91.2205 9.76534 90.6481 9.64824C90.4543 9.60859 90.1191 9.48915 89.9034 9.38283C89.5263 9.19703 89.4938 9.18964 89.0665 9.19275C88.7392 9.19513 88.4984 9.22936 88.1541 9.32247C87.1153 9.60333 86.5483 9.87526 86.2595 10.2312C85.8883 10.6886 85.8847 10.6908 85.411 10.7636C84.6257 10.8842 84.3333 11.0832 83.9589 11.7519C83.8046 12.0274 83.756 12.1742 83.7404 12.4117C83.6958 13.0941 84.0445 13.2397 85.3768 13.0948C85.8222 13.0463 85.9049 13.0504 86.3133 13.1411C86.8149 13.2524 87.0772 13.2633 87.5181 13.1912C87.8453 13.1377 87.9674 13.154 88.7527 13.3567C89.3878 13.5206 89.8987 13.4939 90.9847 13.24Z" fill="white" fill-opacity="0.7"/>
</g>
<defs>
<clipPath id="clip0_3_85">
<rect width="98" height="25" fill="white"/>
</clipPath>
</defs>
</svg>
