<svg width="30" height="25" viewBox="0 0 30 25" fill="none" xmlns="http://www.w3.org/2000/svg">
<path d="M4.192 24C3.448 24 2.644 24.06 1.78 24.18C0.916 24.3 0.352 24.384 0.0880001 24.432L0.304 22.776C1.408 22.56 2.152 22.248 2.536 21.84C2.92 21.408 3.112 20.688 3.112 19.68L3.148 4.56C3.148 3.792 3.052 3.276 2.86 3.012C2.692 2.748 2.344 2.616 1.816 2.616C1.576 2.616 1.336 2.628 1.096 2.652C0.856 2.676 0.688 2.688 0.592 2.688L0.52 2.544L0.772 0.959998C1.06 0.983998 1.6 1.008 2.392 1.032C3.184 1.056 3.976 1.068 4.768 1.068C5.584 1.068 6.412 1.056 7.252 1.032C8.116 0.983999 8.704 0.947999 9.016 0.923999C11.296 0.923999 13.048 1.404 14.272 2.364C15.496 3.3 16.108 4.644 16.108 6.396C16.108 7.596 15.736 8.676 14.992 9.636C14.272 10.596 13.252 11.364 11.932 11.94C13.684 12.324 15.052 12.996 16.036 13.956C17.02 14.916 17.512 16.068 17.512 17.412C17.512 18.636 17.116 19.788 16.324 20.868C15.556 21.924 14.524 22.776 13.228 23.424C11.932 24.048 10.54 24.36 9.052 24.36C8.404 24.36 7.66 24.3 6.82 24.18C5.452 24.06 4.576 24 4.192 24ZM5.884 11.364C6.244 11.388 6.844 11.436 7.684 11.508C8.548 11.58 9.256 11.628 9.808 11.652C9.808 11.724 10.12 11.604 10.744 11.292C11.368 10.956 11.932 10.452 12.436 9.78C12.94 9.084 13.192 8.16 13.192 7.008C13.192 5.472 12.676 4.332 11.644 3.588C10.612 2.844 9.016 2.472 6.856 2.472C6.616 2.472 6.448 2.532 6.352 2.652C6.28 2.748 6.232 2.964 6.208 3.3C6.064 5.604 5.956 8.292 5.884 11.364ZM5.668 20.004C5.668 20.916 5.98 21.564 6.604 21.948C7.228 22.332 8.284 22.524 9.772 22.524C11.212 22.524 12.34 22.128 13.156 21.336C13.996 20.52 14.416 19.428 14.416 18.06C14.416 16.764 14.008 15.708 13.192 14.892C12.376 14.052 11.164 13.488 9.556 13.2L5.812 13.272L5.668 20.004ZM27.7231 24.432C27.0751 24.432 26.5711 24.24 26.2111 23.856C25.8751 23.448 25.7071 22.956 25.7071 22.38C25.7071 21.756 25.9111 21.228 26.3191 20.796C26.7271 20.364 27.2671 20.148 27.9391 20.148C28.5871 20.148 29.0911 20.352 29.4511 20.76C29.8111 21.144 29.9911 21.624 29.9911 22.2C29.9911 22.824 29.7751 23.352 29.3431 23.784C28.9351 24.216 28.3951 24.432 27.7231 24.432Z" fill="white" fill-opacity="0.7"/>
</svg>
