<svg width="95" height="33" viewBox="0 0 95 33" fill="none" xmlns="http://www.w3.org/2000/svg">
<g opacity="0.7">
<path fill-rule="evenodd" clip-rule="evenodd" d="M3.49054 1.04427H0.633331V0.573723H16.4546V9.04359H15.9855C15.9855 9.04359 15.9855 4.15713 14.0665 2.5645C12.446 1.18905 10.7402 1.08047 7.96824 1.08047V16.6809C7.96824 16.6809 9.88726 16.7895 10.8254 15.9932C12.2754 14.7626 12.446 13.1699 12.446 10.962H12.9577V22.9067H12.446C12.446 20.6987 12.318 19.1061 10.8254 17.8754C9.88726 17.0791 7.96824 17.1877 7.96824 17.1877V31.9919C10.7402 31.9919 12.0621 31.8471 13.6827 30.5078C15.559 28.9152 15.6017 24.0287 15.6017 24.0287H16.0708V32.4624H0.633331V31.9919H3.49054V1.04427Z" fill="white"/>
<path fill-rule="evenodd" clip-rule="evenodd" d="M34.408 31.9919V1.04427C37.1799 1.04427 38.8857 1.18905 40.5062 2.52831C42.3826 4.12093 42.4253 9.00739 42.4253 9.00739H42.8944V0.537527H27.0731V1.00807H29.9303V32.0281H27.0731V32.4624H37.0094V31.9919H34.408Z" fill="white"/>
<path fill-rule="evenodd" clip-rule="evenodd" d="M59.8244 31.9919V1.04427C62.5963 1.04427 64.3021 1.18905 65.9226 2.52831C67.7989 4.12093 67.8416 9.00739 67.8416 9.00739H68.3107V0.537527H52.4894V1.00807H55.3466V32.0281H52.4894V32.4624H62.4257V31.9919H59.8244Z" fill="white"/>
<path fill-rule="evenodd" clip-rule="evenodd" d="M81.4026 1.04427H78.5454V0.573723H94.3667V9.04359H93.8976C93.8976 9.04359 93.8976 4.15713 91.9786 2.5645C90.3581 1.18905 88.6523 1.08047 85.8803 1.08047V16.6809C85.8803 16.6809 87.7994 16.7895 88.7376 15.9932C90.1875 14.7626 90.3581 13.1699 90.3581 10.962H90.8698V22.9067H90.3581C90.3581 20.6987 90.2301 19.1061 88.7376 17.8754C87.7994 17.0791 85.8803 17.1877 85.8803 17.1877V31.9919C88.6523 31.9919 89.9743 31.8471 91.5948 30.5078C93.4711 28.9152 93.5138 24.0287 93.5138 24.0287H93.9829V32.4624H78.5454V31.9919H81.4026V1.04427Z" fill="white"/>
</g>
</svg>
