<svg width="65" height="33" viewBox="0 0 65 33" fill="none" xmlns="http://www.w3.org/2000/svg">
<g opacity="0.7">
<path d="M35.1401 16.4746C35.1401 15.6783 35.1355 14.8943 35.0097 14.2024H19.7902V21.119H24.3078C24.3078 21.8104 22.2196 23.2316 19.0866 23.2316C15.64 23.2316 11.7378 20.6716 11.6598 16.5526C11.5784 12.2853 15.486 9.4944 19.0866 9.61592C22.0107 9.7146 23.1275 10.5068 24.7581 12.0232C24.7581 12.0232 34.2466 12.03 34.4952 12.03C34.2124 11.0027 33.5117 9.45036 32.313 7.84341C32.2128 7.70965 32.1107 7.57481 32.0028 7.44106C29.6055 4.42643 25.4404 1.36585 18.9686 1.35933C11.3646 1.34927 5.49569 6.15218 3.5603 12.0327C3.53728 12.1037 3.51512 12.1746 3.49239 12.2461C3.49239 12.2494 3.49095 12.2543 3.48951 12.257C3.09213 13.5728 2.87747 14.9615 2.87747 16.3955C2.89186 17.7687 3.08062 19.0831 3.42362 20.3233C4.64482 24.6138 7.82329 28.1547 12.008 30.0539C12.0417 30.0689 12.0751 30.0844 12.1096 30.0985C12.1312 30.1094 12.1533 30.1172 12.1732 30.1268C14.285 31.0342 16.6572 31.5396 19.1758 31.5584C24.5164 31.5176 29.2401 29.0486 32.1504 25.27C32.2099 25.192 35.1401 21.1875 35.1401 16.4746Z" fill="white"/>
<path d="M59.1858 25.2042C59.1858 25.2042 62.1519 21.6254 62.1631 16.8603C62.1867 7.50217 55.2482 1.46259 45.5687 1.44899C39.961 1.44084 34.791 4.25864 32.1435 7.63946C29.7885 10.6473 29.4004 13.1533 29.4004 14.9761C29.2887 17.2439 29.5247 18.3164 29.5247 18.3164C29.8665 20.6778 30.8368 23.0005 32.3265 25.0264C35.1456 28.8615 39.8264 31.6407 45.6242 31.6407C49.472 31.6412 52.1938 29.9337 52.6855 29.6868L53.7053 30.8025H63.5613L59.1858 25.2042ZM53.1859 18.6375L52.3446 17.6607H42.3459L46.4109 23.112C42.181 23.8952 38.183 20.4994 38.2414 16.6097C38.3007 12.6354 41.6956 9.68356 45.7551 9.70939C50.2118 9.73603 54.6575 14.3008 53.1859 18.6375Z" fill="white"/>
<g opacity="0.5">
<path opacity="0.5" d="M34.4952 12.0341C34.2124 11.0067 33.5117 9.4525 32.313 7.84637C32.2629 7.77813 32.2085 7.70989 32.157 7.64111C32.1527 7.64655 32.1478 7.65199 32.1435 7.65742C30.8788 9.27172 30.1825 10.7389 29.8078 12.033C32.1184 12.0335 34.3755 12.0341 34.4952 12.0341Z" fill="white"/>
<path opacity="0.5" d="M35.1401 16.4746C35.1401 15.6783 35.1355 14.8943 35.0097 14.2024H29.4277C29.4093 14.2024 29.4007 14.7374 29.4007 14.9886C29.289 17.2567 29.525 18.3219 29.525 18.3219C29.8654 20.6816 30.8348 23.0002 32.3219 25.0242C32.9578 24.0809 35.1401 20.5418 35.1401 16.4746Z" fill="white"/>
</g>
</g>
</svg>
