<svg width="95" height="21" viewBox="0 0 95 21" fill="none" xmlns="http://www.w3.org/2000/svg">
<g opacity="0.7">
<path d="M10.257 0.461405C10.2581 0.457939 10.4099 0.462944 10.4099 0.462944L10.817 7.33923L10.68 7.345C10.3962 6.56497 9.6311 0.517616 6.64613 0.517616C4.35198 0.517616 3.58195 7.93291 3.58195 10.4174C3.58195 13.6349 4.14847 20.3865 6.72368 20.3865C7.96508 20.3865 8.63886 18.8976 8.63886 16.9333V10.6596H7.26105V10.4131H12.8218V10.6596H11.4264V20.4904C11.4231 20.4896 11.2674 20.4935 11.2663 20.4916C11.0645 20.0823 11.0353 19.2407 10.1305 19.2407C9.12728 19.2407 8.05199 20.6948 6.65768 20.6918C2.04628 20.6818 0.440216 14.7183 0.440216 10.4189C0.440216 6.85719 2.29819 0.308556 6.65383 0.308556C7.38371 0.308556 7.89743 0.440613 8.4799 1.03006C8.90672 1.46243 9.71416 1.56099 10.0596 1.00735C10.1641 0.840254 10.2119 0.625032 10.257 0.461405Z" fill="white"/>
<path d="M72.8116 20.1306V0.821138H71.5779V0.585897H76.8306V0.821138H75.5914L75.6002 20.1306H76.8306V20.3693H71.5779V20.1306H72.8116V0.821138V20.1306Z" fill="white"/>
<path d="M57.5608 20.129H60.8532C62.3971 20.0863 64.2881 19.0771 64.2881 16.2623C64.2881 15.7252 64.2975 15.1643 64.2975 14.6022L64.5906 14.6033V20.3654L54.6192 20.3696L61.3884 0.822657H58.2312C56.2347 0.822657 55.133 2.9379 55.133 4.88298C55.133 5.38195 55.1115 6.34794 55.1115 6.34794L54.8332 6.35025V0.586262H64.5202L57.5608 20.129Z" fill="white"/>
<path d="M24.1311 0.825403V10.4175C24.7031 10.4152 25.6502 10.4607 26.6342 9.57245C27.5484 8.74699 27.9108 6.66601 27.9108 5.11519C27.9108 3.46041 26.7277 0.821167 25.2086 0.821167L24.1311 0.825403ZM20.1324 0.587467L26.0072 0.588621C28.82 0.588621 30.6439 2.77663 30.6439 5.40356C30.6439 8.02163 29.1093 10.4614 26.7437 10.4614C26.4274 10.4614 26.4566 10.5943 26.7437 10.5943C28.1611 10.5943 29.2254 11.7293 29.4404 12.0311C30.3073 13.2516 29.71 18.8674 30.5773 19.4222C31.3089 19.8903 31.8462 19.1584 31.942 19.0449L32.0311 19.0903C32.0173 19.1419 31.3903 20.5899 29.8079 20.5899C28.4933 20.5899 27.8278 19.4591 27.6386 18.7511C27.3311 17.5976 27.4312 14.0694 27.2635 13.3598C27.1172 12.7411 26.72 10.8946 25.4792 10.7333C24.9259 10.6613 24.7515 10.6613 24.1316 10.664C24.1283 10.664 24.1327 20.1267 24.1327 20.1267H25.3719V20.3697H19.9641V20.1267H21.3529L21.3474 0.825403H20.1324V0.587467Z" fill="white"/>
<path d="M40.0287 14.346H43.9707L42.0715 6.60847L40.0287 14.346ZM38.0607 20.1262L43.3739 0.308159L48.2845 20.1266L49.4011 20.1289V20.3683L44.2925 20.368V20.125H45.4112L44.0208 14.5978H39.9511L38.5084 20.1296H39.9429V20.3668H36.8501V20.1316L38.0607 20.1262Z" fill="white"/>
<path d="M85.187 14.346H89.1295L87.2298 6.60847L85.187 14.346ZM83.2195 20.1262L88.5322 0.308159L93.4434 20.1266L94.5594 20.1289V20.3683L89.4508 20.368V20.125H90.5695L89.179 14.5978H85.1094L83.6667 20.13H85.1012V20.3668H82.0084V20.132L83.2195 20.1262Z" fill="white"/>
</g>
</svg>
