<svg width="132" height="30" viewBox="0 0 132 30" fill="none" xmlns="http://www.w3.org/2000/svg">
<g opacity="0.8">
<path d="M47.9929 3.81492C46.505 3.64771 44.9965 3.61696 43.5048 3.73996C42.0225 3.86489 40.4726 4.08398 39.0954 4.65479C38.4218 4.93347 37.7032 5.26981 37.2416 5.84446C36.7875 6.4095 36.5117 7.32625 37.0709 7.9355C38.0709 9.0233 39.7765 9.26354 41.1913 9.45381C44.3097 9.87279 47.4845 9.71135 50.6142 10.0631C52.1284 10.2341 53.6519 10.5205 55.0798 11.0432C56.4852 11.5564 57.9994 12.4097 58.763 13.7166C60.3373 16.415 59.7125 19.9359 57.2395 21.9309C54.819 23.8855 51.5523 24.5639 48.4733 24.7369C45.3811 24.9118 42.1745 24.8061 39.1198 24.2794C36.2734 23.7855 33.6372 22.7535 31.2674 21.1487C32.0573 19.9609 32.8491 18.7712 33.6372 17.5835C35.9713 19.4651 39.1855 20.3395 42.12 20.8142C43.6549 21.0622 45.2141 21.1487 46.7677 21.1487C48.2744 21.1487 49.8467 21.0276 51.2953 20.6028C52.6706 20.2011 54.3162 19.5419 54.8847 18.1389C55.1399 17.5009 55.2412 16.711 54.8828 16.0883C54.4925 15.4137 53.8283 14.9928 53.1003 14.7141C51.6368 14.1548 50.0644 14.0126 48.5127 13.8838C46.9703 13.757 45.4092 13.7416 43.8631 13.6782C40.8835 13.5552 37.5512 13.3534 34.9037 11.887C33.5865 11.1585 32.4119 9.93237 32.2055 8.41982C32.001 6.92457 32.1943 5.31209 33.1493 4.06861C35.0125 1.64123 38.3149 0.613008 41.3095 0.278596C44.4354 -0.0673483 47.5783 0.0152953 50.6817 0.503461C53.5825 0.962799 56.5114 2.02562 58.9225 3.66693C58.1457 4.71629 57.367 5.76758 56.5921 6.81695C54.151 5.01611 50.9988 4.1551 47.9929 3.81492" fill="white"/>
<path d="M70.1598 24.6811C69.9778 24.6984 68.8314 24.7119 68.8126 24.7984C67.2947 24.7599 65.7486 24.5773 64.5008 23.6702C63.3094 22.8073 62.9116 21.262 62.8328 19.8936C62.7502 18.4522 62.814 16.9954 62.814 15.552V9.81705C62.814 9.67482 62.8665 9.60563 62.7108 9.60563H61.2642H59.7744C59.5361 9.60563 59.6411 9.35771 59.6411 9.15398V6.16925C59.6411 5.90211 59.8081 6.00205 60.0708 6.00205H61.767H62.4838H62.814V5.26595V2.02753C62.814 1.92759 62.8328 1.28952 62.814 1.29144C62.7952 1.29528 63.5195 1.29144 63.6433 1.29144C64.7241 1.29144 67.0395 1.2876 67.2121 1.2876V2.61948V5.71569V6.00205H68.3829H71.8335H73.0381C73.267 6.00205 73.2501 5.97514 73.2501 6.20193V9.20396C73.2501 9.34618 73.3402 9.60564 73.1601 9.60564H72.1375H68.6907H67.2121C67.2252 12.771 67.2384 15.9383 67.2515 19.1057C67.2553 19.6457 67.3341 20.2127 67.7881 20.5778C68.2385 20.9372 68.9083 20.968 69.4675 20.9853C70.8015 21.0237 72.0849 20.6855 73.3421 20.2915C73.6929 21.5061 74.0457 22.7208 74.3966 23.9354C73.479 24.1872 72.5127 24.3506 71.5708 24.4928C71.1036 24.5639 70.6327 24.6312 70.1598 24.6811" fill="white"/>
<path d="M89.1276 24.5062L86.7033 28.7229C86.5063 29.065 86.3093 29.4071 86.1123 29.7492C85.9603 30.0164 85.7502 29.9126 85.4293 29.9126H81.0744C81.9975 28.402 82.9207 26.8933 83.842 25.3826C84.0652 25.0175 84.2904 24.6523 84.5137 24.2871C84.5362 24.2487 84.7726 23.9335 84.752 23.8931C84.6169 23.6548 84.4818 23.4146 84.3467 23.1763C82.3747 19.6842 80.4027 16.192 78.4306 12.698C77.1697 10.4647 75.9089 8.23532 74.6498 6.00206H79.8454C80.0424 6.00206 80.1869 6.48062 80.2657 6.6286C80.6316 7.30896 80.9974 7.98932 81.3633 8.66968C83.2584 12.1887 85.1516 15.7058 87.0448 19.2248C87.1124 19.3478 87.1799 19.4747 87.2456 19.5958C88.9399 16.586 90.6361 13.5725 92.3304 10.5608C93.1373 9.12902 93.9422 7.69911 94.749 6.26536C94.7978 6.17888 94.8466 6.09239 94.8954 6.00398C94.9235 5.95401 95.4902 6.00205 95.5502 6.00205H98.8882H99.7607C98.4942 8.20456 97.2295 10.409 95.963 12.6077C93.6833 16.5764 91.4054 20.5394 89.1276 24.5062" fill="white"/>
<path d="M105.461 24.1391H102.343H101.215C101.134 24.1391 101.159 24.1141 101.159 24.0411V20.7373V7.4915V0.593754C101.599 0.593754 105.639 0.576457 105.639 0.612974V3.4478V16.5168V22.1461V23.7278C105.639 23.9777 105.739 24.1391 105.461 24.1391Z" fill="white"/>
<path d="M119.39 5.49281C117.809 5.51155 116.229 5.74276 114.733 6.16462C111.815 6.9872 109.111 9.01849 108.054 11.8475C107.022 14.6132 107.293 17.9778 109.057 20.4205C110.866 22.9248 113.915 24.2257 116.977 24.5908C120.046 24.956 123.316 24.7646 126.295 23.9401C127.777 23.5289 129.205 22.8829 130.466 22.0219C130.554 21.9623 131.241 21.5118 131.2 21.4599C130.969 21.164 130.738 20.8732 130.507 20.5811C129.97 19.895 129.431 19.2095 128.894 18.5234C128.704 18.6752 128.515 18.8202 128.316 18.9586C125.834 20.6653 122.545 20.9402 119.592 20.9402H119.415C116.64 20.9402 112.926 19.858 112.365 16.808H112.369H122.187H131.934C131.887 15.0725 131.654 13.3671 130.952 11.7546C129.699 8.87365 127.11 6.95189 124.059 6.09279C122.555 5.66901 120.971 5.47407 119.39 5.49281ZM119.246 9.27439C119.43 9.27121 119.614 9.27333 119.794 9.27861C122.657 9.36317 126.086 10.2936 126.869 13.3264H123.292H112.406C112.425 13.2418 112.438 13.1536 112.464 13.0729C113.405 10.3449 116.483 9.32199 119.246 9.27439Z" fill="white"/>
<path d="M0.0660095 24.0949V21.3985V8.40825V0.59375H4.89004V3.11146V16.0171C4.89004 16.5168 4.91443 24.1026 4.86752 24.1026C4.41157 24.1026 0.0660095 24.1084 0.0660095 24.0949Z" fill="white"/>
<path d="M24.7115 24.0757V18.9231V14.8064C24.7115 13.4495 24.7115 11.7005 23.7246 10.6147C22.7038 9.49418 20.9889 9.31929 19.531 9.31929C18.0337 9.31929 16.4632 9.45959 15.0578 10.0131C14.3523 10.2918 13.66 10.5743 13.0051 10.9606C12.6636 11.1624 12.3372 11.3815 12.0182 11.616C11.8512 11.7371 11.7405 11.7928 11.7405 11.9869V23.2013C11.7405 23.3377 11.8287 24.1026 11.6654 24.1026H8.70459H7.39867C7.27295 24.1026 7.25044 24.1334 7.25044 24.02V22.7073V10.0554V6.10777C7.25044 6.00207 7.23168 6.00207 7.34613 6.00207H8.5695H11.6185C11.8474 6.00207 11.7405 6.26921 11.7405 6.45756V7.59341C14.3204 5.92519 17.3901 5.34861 20.4541 5.49852C23.3568 5.63882 26.9312 6.4345 28.3291 9.22704C28.9783 10.5205 29.2353 11.8889 29.2409 13.3246C29.2466 14.9601 29.2541 16.5976 29.2597 18.2331C29.2653 20.1896 29.2728 22.1461 29.2804 24.1026C28.8244 24.1026 24.7115 24.1276 24.7115 24.0757" fill="white"/>
</g>
</svg>
