<svg width="150" height="144" viewBox="0 0 150 144" fill="none" xmlns="http://www.w3.org/2000/svg">
<g opacity="0.7">
<path d="M13.8957 73.5902L5.91257 63.9608H5.06134V77.8749H7.10889V67.892L15.2991 78.0736H15.9662V63.9608H13.8957V73.5902Z" fill="white"/>
<path d="M20.3144 77.8749H29.6779V76.1522H22.477V71.1387H27.5844V69.5264H22.477V65.6614H29.6779V63.9387H20.3144V77.8749Z" fill="white"/>
<path d="M45.2761 73.6565L41.8481 63.9608H41.0889L37.592 73.6785L34.4172 63.9608H32.1626L37.1779 78.0736H37.8451L41.388 68.4663L45.161 78.0736H45.8282L50.7975 63.9608H48.5429L45.2761 73.6565Z" fill="white"/>
<path d="M61.8175 75.6884C61.1963 76.1301 60.2071 76.351 58.8497 76.351C58.4586 76.351 57.8835 76.3289 57.1473 76.2626V70.962L58.8957 70.9178C60.2761 70.9178 61.2654 71.1387 61.8635 71.5583C62.4617 72 62.7608 72.6626 62.7608 73.5681C62.7377 74.5178 62.4387 75.2246 61.8175 75.6884ZM57.1473 65.4626C57.7224 65.4184 58.3666 65.3964 59.0798 65.3964C60.9663 65.3964 61.8865 66.0368 61.8865 67.3178C61.8865 68.7755 60.8742 69.5043 58.8267 69.5043C58.1595 69.5043 57.6074 69.4822 57.1473 69.4381V65.4626ZM64.1641 71.3375C63.589 70.7191 62.6687 70.2773 61.4264 70.0123C62.0936 69.8798 62.6917 69.5485 63.2439 69.0184C63.796 68.4884 64.0721 67.8921 64.0721 67.2516C64.0721 66.1473 63.635 65.308 62.7838 64.7117C61.9325 64.1154 60.7132 63.8282 59.1488 63.8282C58.2976 63.8282 56.8942 63.8724 54.9847 63.9608V77.8749H59.5169C61.1733 77.8749 62.5077 77.4994 63.52 76.7706C64.5322 76.0418 65.0614 75.07 65.0614 73.8332C65.0384 72.7951 64.7393 71.9559 64.1641 71.3375Z" fill="white"/>
<path d="M78.5659 76.1522H71.388V71.1387H76.4954V69.5264H71.388V65.6614H78.5659V63.9608H69.2025V77.8749H78.5659V76.1522Z" fill="white"/>
<path d="M86.8021 72.3755L88.7807 67.4282L90.5751 72.3755H86.8021ZM89.1718 63.7399H88.5966L82.1319 77.8749H84.5705L86.227 73.7669H91.1963L92.7377 77.8749H95.1534L89.1718 63.7399Z" fill="white"/>
<path d="M107.6 73.4356C107.6 74.3411 107.301 75.07 106.679 75.6C106.058 76.1301 105.23 76.3951 104.172 76.3951C103.159 76.3951 102.354 76.1301 101.756 75.5779C101.135 75.0258 100.836 74.3411 100.836 73.4798V63.9387H98.6503V73.6123C98.6503 75.0479 99.1334 76.1742 100.1 76.9473C101.066 77.7203 102.423 78.1178 104.195 78.1178C105.92 78.1178 107.278 77.7203 108.29 76.9252C109.279 76.1301 109.785 75.0479 109.785 73.6344V63.9387H107.6V73.4356Z" fill="white"/>
<path d="M113.213 65.6614H118.275V77.8749H120.46V65.6614H125.752V63.9387H113.213V65.6614Z" fill="white"/>
<path d="M134.701 70.0344L130.744 63.9387H128.512L133.62 71.6467V77.8749H135.805V71.6467L140.89 63.9387H138.658L134.701 70.0344Z" fill="white"/>
<path d="M142.086 64.7337V64.4245H142.27C142.385 64.4245 142.454 64.4908 142.454 64.5791C142.454 64.6675 142.385 64.7337 142.27 64.7337H142.086ZM142.569 64.5791C142.569 64.4245 142.431 64.3141 142.27 64.3141H141.948V65.2196H142.086V64.8441H142.224L142.431 65.2196H142.592L142.362 64.8221C142.477 64.8 142.569 64.7116 142.569 64.5791Z" fill="white"/>
<path d="M142.224 65.4626C141.833 65.4626 141.488 65.1534 141.488 64.7558C141.488 64.3583 141.81 64.0491 142.224 64.0491C142.615 64.0491 142.96 64.3583 142.96 64.7558C142.96 65.1534 142.638 65.4626 142.224 65.4626ZM142.224 63.9166C141.741 63.9166 141.35 64.292 141.35 64.7558C141.35 65.2196 141.741 65.5951 142.224 65.5951C142.707 65.5951 143.098 65.2196 143.098 64.7558C143.098 64.292 142.707 63.9166 142.224 63.9166Z" fill="white"/>
</g>
</svg>
