<svg width="16" height="24" viewBox="0 0 16 24" fill="none" xmlns="http://www.w3.org/2000/svg">
<path d="M6.66667 1.33336L6.66667 18.8934L2.82667 15.0534C2.30667 14.5334 1.46667 14.5334 0.946666 15.0534C0.426666 15.5734 0.426666 16.4134 0.946666 16.9334L7.06667 23.0534C7.58667 23.5734 8.42667 23.5734 8.94667 23.0534L15.0667 16.9334C15.5867 16.4134 15.5867 15.5734 15.0667 15.0534C14.5467 14.5334 13.7067 14.5334 13.1867 15.0534L9.33333 18.8934L9.33333 1.33336C9.33333 0.600027 8.73333 2.67029e-05 8 2.67029e-05C7.26667 2.67029e-05 6.66667 0.600027 6.66667 1.33336Z" fill="white"/>
</svg>
