<svg width="107" height="23" viewBox="0 0 107 23" fill="none" xmlns="http://www.w3.org/2000/svg">
<g opacity="0.7">
<path d="M31.4962 0.656304C25.3407 0.691943 20.3056 6.23219 20.3056 11.0646C20.3056 16.1498 23.9965 22.353 31.4962 22.3329C38.996 22.3128 42.8886 15.6345 42.8886 11.0646C42.8886 6.01672 37.6518 0.620665 31.4962 0.656304ZM31.4962 0.845845C36.6482 0.845845 38.0381 5.45361 38.0381 11.0646C38.0381 18.4681 36.3615 22.1206 31.4962 22.1137C26.631 22.1067 25.0482 19.1173 25.0482 11.0646C25.0482 6.02017 26.3443 0.845845 31.4962 0.845845Z" fill="#F9FFFD"/>
<path d="M44.9211 11.2012C44.8935 5.70272 50.3278 0.832123 54.928 0.59047C56.5896 0.495139 58.7256 1.11134 59.9725 1.5503C60.878 1.86905 62.7264 1.40767 63.0547 0.561218H63.2336V8.05119H63.0547C63.0547 7.73188 61.3418 0.77878 54.928 0.77878C50.1906 0.77878 49.7329 7.52457 49.7329 11.2012C49.7329 14.8778 49.8709 22.1563 55.3993 22.1563C58.0774 22.1563 60.0597 21.2074 60.5736 19.2879V13.4513H58.3257V13.2027H67.039V13.4513H64.8899V21.9844H64.7149C64.7149 21.9844 64.3656 20.7532 62.5926 20.7573C60.3267 20.7625 58.1897 22.3568 55.5847 22.3373C48.6955 22.286 44.9487 16.6997 44.9211 11.2012Z" fill="#F9FFFD"/>
<path d="M3.40611 1.39406H0.693039V1.14709H10.1971V1.39406H7.81273L14.6036 16.3284C16.7271 11.0341 18.3722 7.12061 20.586 1.39406H18.2276V1.14709H23.2458V1.39406H20.9606L12.707 22.2303L3.40611 1.39406Z" fill="#F9FFFD"/>
<path d="M68.3696 17.1291L68.3267 1.37009H65.7443V1.13403H75.2585V1.37009H72.6775L72.7349 18.649C73.3062 20.6275 74.322 22.1288 77.7925 22.1512C81.263 22.1735 83.6224 20.4886 84.4992 18.186V1.37009H81.545L81.545 1.14099H105.725L105.775 8.70593H105.542C105.094 3.82153 102.767 1.97558 98.6965 1.43705C97.2959 1.25174 95.8266 1.38911 93.9691 1.37742V11.0323C95.5866 11.1335 97.3096 11.0507 98.4707 10.2431C99.5265 9.50871 99.825 7.81198 99.9026 7.12268H100.107V15.5291H99.8858C99.8219 15.5291 99.7369 13.4195 98.4707 12.4187C97.1961 11.4113 95.5731 11.1636 93.9691 11.4036V21.7171C96.2347 21.7171 98.0407 21.8725 99.609 21.5243C104.376 20.4659 106.055 17.2088 106.042 13.9421H106.307V21.9613H87.3411V21.7171H89.4855V1.37009H84.8523V18.186C84.3271 19.795 82.4078 22.4568 77.4889 22.4387C72.9155 22.4218 68.3795 20.7521 68.3696 17.1291Z" fill="#F9FFFD"/>
</g>
</svg>
