<svg width="124" height="34" viewBox="0 0 124 34" fill="none" xmlns="http://www.w3.org/2000/svg">
<path d="M13.168 0.727999L18.784 0.512C19.192 0.512 19.396 0.727999 19.396 1.16C19.396 1.976 17.476 5.576 13.636 11.96C9.796 18.32 7.876 21.944 7.876 22.832C7.876 23.504 8.836 23.84 10.756 23.84C12.148 23.84 13.396 23.588 14.5 23.084C15.604 22.556 16.156 21.728 16.156 20.6C16.156 19.904 15.892 19.376 15.364 19.016C14.836 18.656 14.224 18.476 13.528 18.476C13.168 18.476 12.988 18.284 12.988 17.9C12.988 17.108 13.372 16.412 14.14 15.812C14.932 15.212 15.784 14.912 16.696 14.912C17.128 14.912 17.584 15.044 18.064 15.308C19.048 15.836 19.54 16.952 19.54 18.656C19.54 21.248 18.88 23.576 17.56 25.64C17.296 26.048 17.044 26.252 16.804 26.252H16.66C15.052 26.156 13.324 26.108 11.476 26.108L4.276 26.288L1.576 26.216C1.144 26.168 0.928 26 0.928 25.712C0.928 25.4 1.156 24.74 1.612 23.732C2.092 22.7 3.34 20.48 5.356 17.072C7.396 13.664 8.704 11.456 9.28 10.448C10.576 8.096 11.584 6.104 12.304 4.472L12.7 3.644C12.748 3.5 12.772 3.404 12.772 3.356C12.772 3.092 12.256 2.96 11.224 2.96C10.192 2.96 9.244 3.104 8.38 3.392C7.54 3.68 6.844 4.028 6.292 4.436C5.164 5.276 4.384 6.044 3.952 6.74L3.664 7.172C3.448 7.58 3.256 7.808 3.088 7.856H2.98C2.836 7.856 2.704 7.82 2.584 7.748C2.488 7.652 2.44 7.544 2.44 7.424C2.44 4.952 2.656 2.984 3.088 1.52C3.136 1.328 3.28 1.148 3.52 0.979998C3.76 0.787999 4.18 0.679999 4.78 0.655998C5.404 0.631998 6.352 0.619998 7.624 0.619998L13.168 0.727999ZM30.5206 6.668L30.4846 10.16C30.4846 10.304 30.5326 10.376 30.6286 10.376C30.7246 10.376 30.8206 10.34 30.9166 10.268C31.5166 9.86 32.4646 9.656 33.7606 9.656C35.9446 9.656 37.4566 10.4 38.2966 11.888C38.6086 12.44 38.7646 13.172 38.7646 14.084C38.7646 14.996 38.7046 16.256 38.5846 17.864C38.4886 19.472 38.4406 20.612 38.4406 21.284C38.4406 23.636 38.7766 25.196 39.4486 25.964C39.5686 26.084 39.6286 26.204 39.6286 26.324C39.6286 26.564 39.1126 26.684 38.0806 26.684C35.2966 26.684 33.9046 25.388 33.9046 22.796C33.9046 21.788 34.1446 20.372 34.6246 18.548C35.1046 16.724 35.3446 15.38 35.3446 14.516C35.3446 13.652 35.1406 12.992 34.7326 12.536C34.3246 12.056 33.7606 11.816 33.0406 11.816C32.3206 11.816 31.7446 11.972 31.3126 12.284C30.9046 12.596 30.6526 12.92 30.5566 13.256L30.4486 13.724C30.4246 14.18 30.4126 15.632 30.4126 18.08C30.4126 20.528 30.4726 22.124 30.5926 22.868C30.7126 23.588 30.7726 23.996 30.7726 24.092C30.7726 24.788 30.3046 25.412 29.3686 25.964C28.4326 26.492 27.5086 26.756 26.5966 26.756C26.2606 26.756 26.0926 26.564 26.0926 26.18L26.1646 25.496C26.6926 21.464 26.9566 17.096 26.9566 12.392C26.9566 10.568 26.8846 8.72 26.7406 6.848L26.7046 6.056C26.6566 5.384 26.5126 4.808 26.2726 4.328C26.0566 3.848 25.8526 3.536 25.6606 3.392L25.3366 3.212C25.1686 3.116 25.0846 3.008 25.0846 2.888C25.0846 2.552 25.6486 2.144 26.7766 1.664C27.9046 1.16 28.7686 0.907999 29.3686 0.907999C29.9926 0.907999 30.3286 1.04 30.3766 1.304C30.4726 2.528 30.5206 4.316 30.5206 6.668ZM57.0565 15.2L56.9845 19.808C56.9845 23 57.3325 24.92 58.0285 25.568C58.1245 25.664 58.1725 25.772 58.1725 25.892C58.1725 26.252 57.3925 26.432 55.8325 26.432C54.2965 26.432 53.4805 25.976 53.3845 25.064C53.3605 24.848 53.3485 24.404 53.3485 23.732L53.4925 17.972C53.4925 17.804 53.3965 17.72 53.2045 17.72C52.0525 17.72 50.9725 18.044 49.9645 18.692C48.9565 19.34 48.4525 20.168 48.4525 21.176C48.4525 21.704 48.5965 22.148 48.8845 22.508C49.1725 22.868 49.5205 23.048 49.9285 23.048C50.3605 23.048 50.7085 22.964 50.9725 22.796C51.2605 22.628 51.4285 22.532 51.4765 22.508C51.8845 22.556 52.0885 22.988 52.0885 23.804C52.0885 24.596 51.7165 25.244 50.9725 25.748C50.2285 26.228 49.4485 26.468 48.6325 26.468C47.8165 26.468 47.1085 26.324 46.5085 26.036C45.9325 25.748 45.5125 25.424 45.2485 25.064C44.9845 24.704 44.7685 24.296 44.6005 23.84C44.4325 23.288 44.3485 22.808 44.3485 22.4C44.3485 20.72 44.8765 19.376 45.9325 18.368C46.9885 17.36 48.3445 16.64 50.0005 16.208C52.1845 15.776 53.3245 15.38 53.4205 15.02C53.4925 14.756 53.5285 14.312 53.5285 13.688C53.5285 12.416 52.8805 11.78 51.5845 11.78C51.0325 11.78 50.5405 11.96 50.1085 12.32C49.6765 12.656 49.4605 13.088 49.4605 13.616L49.6765 14.48C49.6285 14.888 49.1965 15.128 48.3805 15.2L47.9845 15.236C47.2645 15.236 46.6885 15.056 46.2565 14.696C45.8485 14.336 45.6445 13.856 45.6445 13.256C45.6445 12.872 45.7645 12.452 46.0045 11.996C46.2685 11.516 46.5925 11.132 46.9765 10.844C47.3605 10.556 47.9485 10.304 48.7405 10.088C49.5565 9.848 50.3365 9.728 51.0805 9.728C51.8245 9.728 52.4005 9.752 52.8085 9.8C53.2165 9.848 53.7685 9.968 54.4645 10.16C55.1845 10.328 55.7725 10.664 56.2285 11.168C56.7085 11.672 56.9605 12.212 56.9845 12.788C57.0325 13.34 57.0565 14.144 57.0565 15.2ZM68.2356 17L68.4156 24.2C68.4156 25.712 68.2116 27.044 67.8036 28.196C67.4196 29.372 66.9396 30.248 66.3636 30.824C65.1876 32.048 64.1556 32.744 63.2676 32.912L62.6556 33.056C62.2956 33.056 62.1156 32.948 62.1156 32.732L62.2956 32.192C64.0476 29.768 64.9236 23.816 64.9236 14.336C64.9236 13.472 64.9116 12.824 64.8876 12.392C64.3836 12.392 63.8796 12.428 63.3756 12.5H63.3396C63.0756 12.5 62.9436 12.368 62.9436 12.104L63.0516 10.736C63.0756 10.52 63.2436 10.412 63.5556 10.412H64.8516V8L64.9236 4.58C64.9236 4.412 64.9476 4.232 64.9956 4.04C65.0676 3.824 65.3316 3.512 65.7876 3.104C66.2436 2.672 66.9156 2.288 67.8036 1.952C68.6916 1.592 69.4476 1.412 70.0716 1.412C70.7196 1.412 71.0436 1.604 71.0436 1.988C71.0436 2.132 70.9356 2.252 70.7196 2.348C70.0236 2.564 69.4476 3.188 68.9916 4.22C68.5596 5.228 68.3436 6.956 68.3436 9.404V10.412C69.5676 10.364 70.3716 10.304 70.7556 10.232C70.9236 10.232 71.0076 10.376 71.0076 10.664C71.0076 10.952 70.8756 11.312 70.6116 11.744C70.3716 12.152 70.0596 12.368 69.6756 12.392C69.3156 12.392 68.8596 12.38 68.3076 12.356C68.2596 14.18 68.2356 15.728 68.2356 17ZM86.8361 16.352L86.9801 17.612C86.9801 18.068 86.5481 18.296 85.6841 18.296C83.9321 18.296 83.0561 17.636 83.0561 16.316C83.0561 16.004 83.1401 15.572 83.3081 15.02C83.4761 14.468 83.5601 13.988 83.5601 13.58C83.5601 13.172 83.4401 12.824 83.2001 12.536C82.9601 12.224 82.6121 12.068 82.1561 12.068C81.7001 12.068 81.3041 12.236 80.9681 12.572C80.6561 12.884 80.4641 13.208 80.3921 13.544L80.2481 14.048C80.1041 14.792 80.0321 16.04 80.0321 17.792C80.0321 19.52 80.0561 20.888 80.1041 21.896C80.1521 22.88 80.2001 23.564 80.2481 23.948C80.2961 24.308 80.3201 24.524 80.3201 24.596C80.3201 25.196 79.9481 25.676 79.2041 26.036C78.4601 26.42 77.7161 26.612 76.9721 26.612C76.2281 26.612 75.8561 26.456 75.8561 26.144L76.0361 25.028C76.3721 22.94 76.5401 20.216 76.5401 16.856C76.5401 13.496 76.4201 11.216 76.1801 10.016C76.1801 9.728 76.4321 9.584 76.9361 9.584C78.2321 9.584 79.0961 10.028 79.5281 10.916C79.5521 11.012 79.5881 11.06 79.6361 11.06C79.7081 11.06 79.8761 10.952 80.1401 10.736C80.9321 10.088 81.8681 9.764 82.9481 9.764C83.6201 9.764 84.2921 9.896 84.9641 10.16C86.3321 10.712 87.0161 11.864 87.0161 13.616L86.8361 16.352ZM104.153 15.2L104.081 19.808C104.081 23 104.429 24.92 105.125 25.568C105.221 25.664 105.269 25.772 105.269 25.892C105.269 26.252 104.489 26.432 102.929 26.432C101.393 26.432 100.577 25.976 100.481 25.064C100.457 24.848 100.445 24.404 100.445 23.732L100.589 17.972C100.589 17.804 100.493 17.72 100.301 17.72C99.1492 17.72 98.0692 18.044 97.0612 18.692C96.0532 19.34 95.5492 20.168 95.5492 21.176C95.5492 21.704 95.6932 22.148 95.9812 22.508C96.2692 22.868 96.6172 23.048 97.0252 23.048C97.4572 23.048 97.8052 22.964 98.0692 22.796C98.3572 22.628 98.5252 22.532 98.5732 22.508C98.9812 22.556 99.1852 22.988 99.1852 23.804C99.1852 24.596 98.8132 25.244 98.0692 25.748C97.3252 26.228 96.5452 26.468 95.7292 26.468C94.9132 26.468 94.2052 26.324 93.6052 26.036C93.0292 25.748 92.6092 25.424 92.3452 25.064C92.0812 24.704 91.8652 24.296 91.6972 23.84C91.5292 23.288 91.4452 22.808 91.4452 22.4C91.4452 20.72 91.9732 19.376 93.0292 18.368C94.0852 17.36 95.4412 16.64 97.0972 16.208C99.2812 15.776 100.421 15.38 100.517 15.02C100.589 14.756 100.625 14.312 100.625 13.688C100.625 12.416 99.9772 11.78 98.6812 11.78C98.1292 11.78 97.6372 11.96 97.2052 12.32C96.7732 12.656 96.5572 13.088 96.5572 13.616L96.7732 14.48C96.7252 14.888 96.2932 15.128 95.4772 15.2L95.0812 15.236C94.3612 15.236 93.7852 15.056 93.3532 14.696C92.9452 14.336 92.7412 13.856 92.7412 13.256C92.7412 12.872 92.8612 12.452 93.1012 11.996C93.3652 11.516 93.6892 11.132 94.0732 10.844C94.4572 10.556 95.0452 10.304 95.8372 10.088C96.6532 9.848 97.4332 9.728 98.1772 9.728C98.9212 9.728 99.4972 9.752 99.9052 9.8C100.313 9.848 100.865 9.968 101.561 10.16C102.281 10.328 102.869 10.664 103.325 11.168C103.805 11.672 104.057 12.212 104.081 12.788C104.129 13.34 104.153 14.144 104.153 15.2ZM110.652 26.252C111.084 23.66 111.3 20.552 111.3 16.928C111.3 13.304 111.192 10.952 110.976 9.872C110.976 9.56 111.336 9.404 112.056 9.404C113.16 9.404 113.892 9.824 114.252 10.664C114.276 10.736 114.336 10.772 114.432 10.772C114.528 10.772 114.6 10.748 114.648 10.7C115.392 9.932 116.544 9.548 118.104 9.548C119.664 9.548 120.9 9.944 121.812 10.736C122.724 11.528 123.18 12.68 123.18 14.192C123.18 15.104 123.096 16.4 122.928 18.08C122.784 19.76 122.712 21.008 122.712 21.824C122.712 23.768 123.036 25.172 123.684 26.036C123.78 26.156 123.828 26.276 123.828 26.396C123.828 26.708 123.492 26.864 122.82 26.864C119.844 26.864 118.356 25.544 118.356 22.904C118.356 21.896 118.584 20.492 119.04 18.692C119.496 16.892 119.724 15.524 119.724 14.588C119.724 12.668 118.932 11.708 117.348 11.708C116.58 11.708 115.992 11.936 115.584 12.392C115.2 12.848 114.984 13.376 114.936 13.976C114.888 14.552 114.864 15.656 114.864 17.288C114.864 19.784 114.948 21.956 115.116 23.804L115.188 24.596C115.188 25.268 114.744 25.784 113.856 26.144C112.992 26.528 112.236 26.72 111.588 26.72C110.964 26.72 110.652 26.564 110.652 26.252Z" fill="white" fill-opacity="0.7"/>
</svg>
